<?xml version="1.0" encoding="UTF-8" standalone="no"?>
<!-- Created with Inkscape (http://www.inkscape.org/) -->

<svg
   xmlns:dc="http://purl.org/dc/elements/1.1/"
   xmlns:cc="http://creativecommons.org/ns#"
   xmlns:rdf="http://www.w3.org/1999/02/22-rdf-syntax-ns#"
   xmlns:svg="http://www.w3.org/2000/svg"
   xmlns="http://www.w3.org/2000/svg"
   xmlns:sodipodi="http://sodipodi.sourceforge.net/DTD/sodipodi-0.dtd"
   xmlns:inkscape="http://www.inkscape.org/namespaces/inkscape"
   width="155.575mm"
   height="53.974998mm"
   viewBox="0 0 155.57499 53.974999"
   version="1.1"
   id="svg8"
   inkscape:version="0.92.5 (2060ec1f9f, 2020-04-08)"
   sodipodi:docname="logo.svg"
   inkscape:export-filename="/home/chmod775/repos/while/logo.png"
   inkscape:export-xdpi="149.91599"
   inkscape:export-ydpi="149.91599">
  <defs
     id="defs2" />
  <sodipodi:namedview
     id="base"
     pagecolor="#ffffff"
     bordercolor="#666666"
     borderopacity="1.0"
     inkscape:pageopacity="0.0"
     inkscape:pageshadow="2"
     inkscape:zoom="0.98994949"
     inkscape:cx="417.79138"
     inkscape:cy="-38.328483"
     inkscape:document-units="mm"
     inkscape:current-layer="layer1"
     showgrid="true"
     fit-margin-top="0"
     fit-margin-left="0"
     fit-margin-right="0"
     fit-margin-bottom="0"
     inkscape:window-width="1920"
     inkscape:window-height="1080"
     inkscape:window-x="1920"
     inkscape:window-y="-27"
     inkscape:window-maximized="1">
    <inkscape:grid
       type="xygrid"
       id="grid823"
       originx="16.20033"
       originy="11.820161" />
  </sodipodi:namedview>
  <metadata
     id="metadata5">
    <rdf:RDF>
      <cc:Work
         rdf:about="">
        <dc:format>image/svg+xml</dc:format>
        <dc:type
           rdf:resource="http://purl.org/dc/dcmitype/StillImage" />
        <dc:title></dc:title>
      </cc:Work>
    </rdf:RDF>
  </metadata>
  <g
     inkscape:label="Layer 1"
     inkscape:groupmode="layer"
     id="layer1"
     transform="translate(-12.115803,-38.987598)">
    <rect
       style="fill:#ffffff;fill-opacity:1;stroke:none;stroke-width:0.53780675;stroke-linecap:round;stroke-miterlimit:4;stroke-dasharray:none;stroke-opacity:1"
       id="rect825"
       width="155.575"
       height="53.974998"
       x="12.115803"
       y="38.987598"
       ry="10.404838" />
    <g
       id="g830">
      <text
         id="text830"
         y="78.481506"
         x="78.17569"
         style="font-style:normal;font-variant:normal;font-weight:normal;font-stretch:normal;font-size:31.88546753px;line-height:1.25;font-family:Righteous;-inkscape-font-specification:'Righteous, Normal';font-variant-ligatures:normal;font-variant-caps:normal;font-variant-numeric:normal;font-feature-settings:normal;text-align:start;letter-spacing:0px;word-spacing:0px;writing-mode:lr-tb;text-anchor:start;fill:#000000;fill-opacity:1;stroke:none;stroke-width:0.79714072"
         xml:space="preserve"><tspan
           style="font-style:normal;font-variant:normal;font-weight:normal;font-stretch:normal;font-size:31.88546753px;font-family:Righteous;-inkscape-font-specification:'Righteous, Normal';font-variant-ligatures:normal;font-variant-caps:normal;font-variant-numeric:normal;font-feature-settings:normal;text-align:start;writing-mode:lr-tb;text-anchor:start;stroke-width:0.79714072"
           y="78.481506"
           x="78.17569"
           id="tspan828"
           sodipodi:role="line">while</tspan></text>
      <path
         d="m 41.271484,50.808594 a 0.37787049,0.37787049 0 0 0 -0.242187,0.109375 l -1.289063,1.287109 -1.287109,1.28711 a 0.37787049,0.37787049 0 0 0 0,0.533203 l 2.15625,2.173828 c 0.861452,0.86771 1.262761,1.279091 1.558594,1.589843 -0.1692,0.0031 -0.324748,0.0069 -0.519531,0.0078 -3.296479,0.01551 -4.653807,0.226249 -6.345704,0.998047 -2.123343,0.968619 -3.791131,2.364891 -5.03125,4.220703 -1.581847,2.367223 -2.242936,5.31565 -1.839843,8.197266 0.539264,3.855195 2.813806,7.054086 6.210937,8.71875 1.141564,0.559397 2.088135,0.86729 3.25,1.058593 0.857956,0.140853 3.131477,0.140504 4.003906,0.002 1.084733,-0.172254 1.922874,-0.436178 2.921875,-0.921876 1.933795,-0.940173 3.606732,-2.414245 5.251953,-4.601562 0.916432,-1.218393 1.78865,-2.550957 3.228516,-4.921875 2.208403,-3.636393 2.903435,-4.60997 4.185547,-5.890625 1.199261,-1.197895 1.969297,-1.704314 3.15625,-2.091797 0.893605,-0.291721 2.748181,-0.346467 3.839844,-0.0918 0.883476,0.206103 2.031347,0.730829 2.662109,1.205078 0.81924,0.615949 1.494232,1.42956 1.958984,2.361328 0.472417,0.947123 0.654709,1.635135 0.751954,2.855469 0.117093,1.469455 -0.05432,2.411375 -0.660157,3.652344 -0.892565,1.828295 -2.352524,3.124144 -4.277343,3.794922 -0.751725,0.261953 -0.937417,0.28615 -2.175782,0.285156 -1.244875,-0.0012 -1.508254,-0.03728 -2.220703,-0.287109 -0.977806,-0.34288 -1.626353,-0.74655 -2.599609,-1.625 -0.256575,-0.231581 -0.462523,-0.406458 -0.619141,-0.53125 -0.07831,-0.0624 -0.142646,-0.111677 -0.205078,-0.152344 -0.03122,-0.02033 -0.06103,-0.04009 -0.09961,-0.05859 -0.03858,-0.01851 -0.07617,-0.04568 -0.195313,-0.04687 -9.05e-4,-8e-6 -0.08387,0.0057 -0.111328,0.01367 -0.02746,0.0079 -0.04828,0.01757 -0.06445,0.02539 -0.03234,0.01565 -0.05086,0.02782 -0.06641,0.03906 -0.03109,0.0225 -0.04842,0.03939 -0.06641,0.05664 -0.03598,0.03451 -0.0682,0.07056 -0.105469,0.113281 -0.07453,0.08545 -0.166183,0.197755 -0.271485,0.332031 -0.210603,0.268554 -0.475969,0.622461 -0.738281,0.982422 -0.262311,0.359961 -0.519322,0.724943 -0.714844,1.013672 -0.09776,0.144365 -0.18088,0.268457 -0.242187,0.369141 -0.03065,0.05034 -0.05577,0.09482 -0.07813,0.138672 -0.01118,0.02193 -0.02196,0.04307 -0.0332,0.07227 -0.01125,0.02919 -0.0293,0.05366 -0.0293,0.158203 0,0.137935 0.03596,0.171854 0.05469,0.205078 0.01873,0.03323 0.03504,0.05377 0.05078,0.07422 0.03149,0.0409 0.06325,0.07674 0.101562,0.117188 0.07663,0.0809 0.175841,0.175404 0.292969,0.283203 0.234255,0.215597 0.538257,0.478213 0.841797,0.720703 1.686383,1.347181 3.50022,2.136065 5.611328,2.435547 0.799464,0.113442 2.488791,0.0751 3.328125,-0.06836 1.619445,-0.276776 3.005101,-0.816526 4.476562,-1.742187 2.197007,-1.382078 3.877329,-3.582284 4.740235,-6.191406 0.498065,-1.506056 0.660445,-3.055445 0.517578,-4.855469 -0.237648,-2.994093 -1.816766,-5.981987 -4.15625,-7.855469 -1.555345,-1.245532 -3.498531,-2.114718 -5.376953,-2.402343 -0.83858,-0.128414 -2.903355,-0.157228 -3.707031,-0.04492 -1.991118,0.27825 -3.817823,1.090986 -5.503907,2.441406 -0.61725,0.494366 -1.61577,1.479318 -2.164062,2.130859 -1.12985,1.342608 -2.173401,2.897217 -4.273438,6.34961 -1.974752,3.246417 -2.901403,4.519687 -4.130859,5.701171 -0.775256,0.744997 -1.454229,1.209243 -2.378906,1.625 -0.860951,0.387087 -1.132857,0.443635 -2.257813,0.47461 -0.973627,0.02682 -1.803744,-0.03915 -2.292969,-0.164063 -0.671508,-0.171451 -1.704029,-0.639538 -2.351562,-1.070312 -1.322339,-0.879685 -2.428766,-2.602469 -2.789063,-4.388672 -0.09023,-0.447455 -0.0878,-2.572094 -0.0039,-2.964844 0.186683,-0.873901 0.568511,-1.76415 1.119141,-2.595703 0.396398,-0.598631 1.323898,-1.54181 1.873047,-1.912109 1.056301,-0.712264 2.084488,-1.092668 3.197265,-1.197266 0.21532,-0.02024 1.258231,-0.04881 2.205078,-0.04883 h 0.820313 l -1.523438,1.523437 -2.166015,2.167969 a 0.37787049,0.37787049 0 0 0 0,0.535157 l 1.304687,1.304687 1.304688,1.304687 a 0.37787049,0.37787049 0 0 0 0.535156,0 l 4.431641,-4.43164 4.43164,-4.429688 a 0.37787049,0.37787049 0 0 0 0,-0.535156 L 46.318359,55.609375 C 45.184083,54.474263 44.117683,53.410772 43.3125,52.611328 42.909908,52.211606 42.572047,51.878666 42.324219,51.634766 42.07639,51.390865 41.936095,51.252639 41.863281,51.1875 l -0.314453,-0.283203 a 0.37787049,0.37787049 0 0 0 -0.277344,-0.0957 z"
         id="path826"
         style="fill:#aa0000;stroke-width:0.04620161"
         inkscape:original="M 41.296875 51.185547 L 40.007812 52.472656 L 38.720703 53.759766 L 40.876953 55.933594 C 42.863213 57.934283 43.025282 58.107369 42.919922 58.136719 C 42.857002 58.154239 42.285661 58.170828 41.650391 58.173828 C 38.368611 58.18927 37.107394 58.386712 35.458984 59.138672 C 33.391834 60.081657 31.788107 61.425588 30.585938 63.224609 C 29.057758 65.511519 28.416321 68.369846 28.806641 71.160156 C 29.329781 74.900076 31.522874 77.981727 34.808594 79.591797 C 35.926084 80.139397 36.822075 80.430958 37.953125 80.617188 C 38.679735 80.736477 41.090141 80.737891 41.837891 80.619141 C 42.894391 80.451371 43.678514 80.203929 44.652344 79.730469 C 46.523994 78.820509 48.147138 77.396558 49.767578 75.242188 C 50.673838 74.037318 51.539293 72.718203 52.976562 70.351562 C 55.187762 66.710563 55.914467 65.689522 57.216797 64.388672 C 58.437097 63.169762 59.286858 62.608762 60.523438 62.205078 C 61.536047 61.874508 63.381306 61.829001 64.566406 62.105469 C 65.512646 62.326214 66.674151 62.85246 67.369141 63.375 C 68.236531 64.02715 68.948783 64.887364 69.439453 65.871094 C 69.928323 66.851204 70.130969 67.616594 70.230469 68.865234 C 70.351149 70.379704 70.161313 71.426301 69.533203 72.712891 C 68.599763 74.624911 67.053736 75.997809 65.041016 76.699219 C 64.272226 76.967119 63.986284 77.004906 62.740234 77.003906 C 61.485844 77.002646 61.129251 76.954906 60.394531 76.697266 C 59.376031 76.340116 58.659946 75.893204 57.666016 74.996094 C 57.159416 74.538844 56.862875 74.303394 56.796875 74.302734 C 56.680965 74.301674 54.65625 77.080124 54.65625 77.240234 C 54.65625 77.312094 55.265362 77.872723 55.857422 78.345703 C 57.497412 79.655823 59.234616 80.410282 61.285156 80.701172 C 61.984746 80.800442 63.740964 80.763836 64.496094 80.634766 C 66.071264 80.365556 67.398368 79.849653 68.835938 78.945312 C 70.953307 77.613332 72.581099 75.485478 73.417969 72.955078 C 73.899659 71.498538 74.057729 70.008917 73.917969 68.248047 C 73.689299 65.367067 72.152594 62.460225 69.902344 60.658203 C 68.400414 59.455446 66.508548 58.610133 64.705078 58.333984 C 63.967808 58.221084 61.793482 58.195146 61.107422 58.291016 C 59.184162 58.559784 57.427319 59.338665 55.787109 60.652344 C 55.208549 61.115723 54.197701 62.112219 53.675781 62.732422 C 52.564591 64.052856 51.532857 65.587246 49.435547 69.035156 C 47.456237 72.289066 46.503271 73.600547 45.244141 74.810547 C 44.445041 75.578457 43.716522 76.076752 42.757812 76.507812 C 41.877122 76.903773 41.495859 76.984225 40.355469 77.015625 C 39.360279 77.043035 38.512234 76.981104 37.958984 76.839844 C 37.223014 76.651934 36.185488 76.17997 35.492188 75.71875 C 34.064558 74.76902 32.921156 72.974424 32.541016 71.089844 C 32.419676 70.488084 32.418042 68.539196 32.539062 67.972656 C 32.736733 67.047316 33.138141 66.114074 33.712891 65.246094 C 34.152621 64.582024 35.067533 63.649839 35.689453 63.230469 C 36.788773 62.489198 37.88497 62.079434 39.0625 61.96875 C 39.34202 61.94248 40.349934 61.919943 41.302734 61.919922 L 43.035156 61.919922 L 40.867188 64.087891 L 38.701172 66.255859 L 40.005859 67.560547 L 41.310547 68.865234 L 45.742188 64.433594 L 50.173828 60.003906 L 46.050781 55.876953 C 43.782861 53.607362 41.784748 51.623891 41.611328 51.46875 L 41.296875 51.185547 z "
         inkscape:radius="0.37783271"
         sodipodi:type="inkscape:offset" />
    </g>
  </g>
</svg>
